<?xml version="1.0" encoding="UTF-8" standalone="no"?>
<!DOCTYPE svg PUBLIC "-//W3C//DTD SVG 1.1//EN" "http://www.w3.org/Graphics/SVG/1.1/DTD/svg11.dtd">
<svg xmlns="http://www.w3.org/2000/svg" viewBox="0 0 3508 2481" xml:space="preserve" fill-rule="evenodd" clip-rule="evenodd" stroke-linejoin="round" stroke-miterlimit="2">
  <defs>
    <style type="text/css">
      @import url('https://fonts.googleapis.com/css?family=Roboto:400,100,100italic,300,300italic,400italic,500,500italic,700,700italic,900,900italic');
	  @font-face {
    		font-weight: 350;
    		font-family: "Nomada Didone";
         src:url('%font_nomada_src%') format("truetype");
    		font-style: normal;
	  }

	  @font-face {
    		font-weight: 300;
    		font-family: "Roboto-Medium";
         src:url('%font_roboto_medium_src%') format("truetype");
    		font-style: normal;
	  }

	  @font-face {
    		font-weight: 500;
    		font-family: "Roboto-Light";
         src:url('%font_roboto_light_src%') format("truetype");
    		font-style: normal;
	  }
 	</style>
  </defs>

  <rect y="-28.34" width="623.62" height="623.62" fill="#f8f8f8" transform="matrix(5.62502 0 0 3.97732 0 112.717)"/>
  <rect y="-28.34" width="623.62" height="623.62" fill="#fff" transform="matrix(-1.47729 0 0 3.14515 3507.87 89.133)"/>
  <rect y="-28.34" width="623.62" height="623.62" fill="#fff" transform="matrix(0 .83217 5.62502 0 159.413 1961.38)"/>
  <rect y="-28.34" width="623.62" height="623.62" fill="#f8f8f8" transform="matrix(-1.17292 0 0 .00379 3412.87 491.258)"/>
  <rect y="-28.34" width="623.62" height="623.62" fill="#f8f8f8" transform="matrix(-1.17292 0 0 .00379 3412.87 634.286)"/>
  <rect y="-28.34" width="623.62" height="623.62" fill="#f8f8f8" transform="matrix(-1.17292 0 0 .00379 3412.87 777.314)"/>
  <text x="0px" y="0px" font-family="'NomadaDidone-LightItalic','Nomada Didone'" font-weight="350" font-style="italic" font-size="12px" fill="#232322" transform="translate(2681.417 155.498) scale(4.16667)">%title_1%</text>
  <text x="0px" y="0px" font-family="'NomadaDidone-LightItalic','Nomada Didone'" font-weight="350" font-style="italic" font-size="12px" fill="#232322" transform="translate(2681.417 200.09) scale(4.16667)">%title_2%</text>
  <text x="0px" y="0px" font-family="'NomadaDidone-LightItalic','Nomada Didone'" font-weight="350" font-style="italic" font-size="12px" fill="#232322" transform="translate(2681.417 244.685) scale(4.16667)">%title_3%</text>
  <path d="M268.192,5.632C265.152,2.048 260.704,0 256.032,0L256,0C251.328,0 246.88,2.048 243.84,5.6C242.112,7.616 200.896,55.904 158.656,117.344C153.664,124.64 155.488,134.592 162.784,139.584C170.112,144.608 180.064,142.784 185.024,135.456C212.768,95.072 240.64,59.872 256.032,40.992C309.984,106.912 416,250.752 416,320C416,408.224 344.224,480 256,480C167.776,480 96,408.224 96,320C96,291.648 113.984,247.712 149.376,189.44C153.952,181.888 151.552,172.032 144,167.456C136.512,162.88 126.656,165.248 121.984,172.8C82.976,237.088 64,285.216 64,320C64,425.888 150.112,512 256,512C361.888,512 448,425.888 448,320C448,218.016 275.52,14.24 268.192,5.632Z" fill="#df0351" fill-rule="nonzero" transform="matrix(.0692 0 0 .0692 2680.313 403.421)"/>
  <path d="M384,320C384,311.168 376.832,304 368,304C359.168,304 352,311.168 352,320C352,372.928 308.928,416 256,416C247.168,416 240,423.168 240,432C240,440.832 247.168,448 256,448C326.592,448 384,390.592 384,320Z" fill="#df0351" fill-rule="nonzero" transform="matrix(.0692 0 0 .0692 2679.42 402.421)"/>
  <text x="0px" y="0px" font-family="'Roboto-Medium','Roboto'" font-weight="500" font-size="7px" fill="#232322" transform="translate(2734.95 432.003) scale(4.16667)">%kolorystyka_title%</text>
  <text x="0px" y="0px" font-family="'Roboto-Light','Roboto'" font-weight="300" font-size="7px" fill="#232322" transform="translate(3394.66 432.003) scale(4.16667)" text-anchor="end">%kolorystyka_value%</text>
  <path d="M6642.74,563.131L6630.76,563.131L6634.16,559.728L6632.7,558.27L6627.53,563.441C6627.13,563.844 6627.13,564.496 6627.53,564.899L6632.7,570.07L6634.16,568.612L6630.76,565.199L6642.74,565.199L6642.74,577.186L6639.34,573.783L6637.88,575.242L6643.05,580.413C6643.46,580.814 6644.11,580.814 6644.51,580.413L6649.68,575.242L6648.22,573.783L6644.81,577.186L6644.81,565.199L6656.8,565.199L6653.4,568.602L6654.85,570.06L6660.03,564.889C6660.43,564.485 6660.43,563.834 6660.03,563.43L6654.85,558.259L6653.4,559.718L6656.8,563.131L6644.81,563.131L6644.81,551.144L6648.21,554.546L6649.67,553.088L6644.5,547.917C6644.1,547.516 6643.45,547.516 6643.04,547.917L6637.87,553.088L6639.33,554.546L6642.74,551.144L6642.74,563.131Z" fill="#df0351" fill-rule="nonzero" transform="translate(-4413.5 -39.814) scale(1.07057)"/>
  <text x="0px" y="0px" font-family="'Roboto-Medium','Roboto'" font-weight="500" font-size="7px" fill="#232322" transform="translate(2734.95 575.023) scale(4.16667)">%rozmiar_title%</text>
  <text x="0px" y="0px" font-family="'Roboto-Light','Roboto'" font-weight="300" font-size="7px" fill="#232322" transform="translate(3394.66 575.023) scale(4.16667)" text-anchor="end">%rozmiar_value%</text>
  <g fill="#df0351" fill-rule="nonzero">
    <path d="M392,40C392,31.223 384.777,24 376,24L60.64,24C40.556,24.044 24.044,40.556 24,60.64L24,376C24,384.777 31.223,392 40,392C48.777,392 56,384.777 56,376L56,60.64C56,58.095 58.095,56 60.64,56L376,56C384.777,56 392,48.777 392,40Z" transform="translate(2679.61 687.6) scale(.07507)"/>
    <path d="M459.36,103.961L140.681,103.961C120.597,104.005 104.085,120.517 104.041,140.601L104.041,459.28C104.041,479.394 120.567,495.956 140.681,496L459.36,496C479.444,495.956 495.956,479.444 496,459.36L496,140.681C496,120.567 479.474,104.005 459.36,103.961ZM464,459.36C464,461.905 461.905,464 459.36,464L140.681,464C138.135,464 136.041,461.905 136.041,459.36L136.041,140.681C136.041,138.135 138.135,136.041 140.681,136.041L459.36,136.041C461.905,136.041 464,138.135 464,140.681L464,459.36Z" transform="translate(2679.61 687.6) scale(.07507)"/>
  </g>
  <text x="0px" y="0px" font-family="'Roboto-Medium','Roboto'" font-weight="500" font-size="7px" fill="#232322" transform="translate(2734.95 718.053) scale(4.16667)">%standard_title%</text>
  <text x="0px" y="0px" font-family="'Roboto-Light','Roboto'" font-weight="300" font-size="7px" fill="#232322" transform="translate(3394.66 718.053) scale(4.16667)" text-anchor="end">%standard_value%</text>
  <path d="M6701.6,835.265C6701.59,835.333 6701.58,835.404 6701.58,835.477L6701.58,839.965C6701.58,840.584 6702.08,841.087 6702.7,841.087C6703.32,841.087 6703.82,840.584 6703.82,839.965L6703.82,835.477C6703.82,835.404 6703.82,835.333 6703.8,835.265L6709.01,835.265C6709.46,835.265 6709.83,835.636 6709.83,836.093L6709.83,866.05C6709.83,866.508 6709.46,866.878 6709.01,866.879L6703.82,866.879L6703.82,862.406C6703.82,861.787 6703.32,861.284 6702.7,861.284C6702.08,861.284 6701.58,861.787 6701.58,862.406L6701.58,866.879L6679.16,866.879C6678.7,866.878 6678.33,866.508 6678.33,866.05L6678.33,866.032C6678.33,865.377 6677.8,864.844 6677.14,864.844C6676.48,864.844 6675.95,865.377 6675.95,866.032C6675.95,866.032 6675.95,866.06 6675.95,866.052C6675.95,867.821 6677.39,869.254 6679.16,869.257L6709.01,869.257C6710.78,869.254 6712.21,867.821 6712.21,866.052L6712.21,836.092C6712.21,834.323 6710.78,832.889 6709.01,832.887L6679.16,832.887C6677.39,832.889 6675.95,834.323 6675.95,836.092L6675.95,860.168C6675.95,860.823 6676.48,861.355 6677.14,861.355C6677.8,861.355 6678.33,860.823 6678.33,860.168L6678.33,860.145C6678.33,860.153 6678.33,836.093 6678.33,836.093C6678.33,835.636 6678.7,835.265 6679.16,835.265L6701.6,835.265ZM6701.58,853.43L6701.58,857.918C6701.58,858.537 6702.08,859.04 6702.7,859.04C6703.32,859.04 6703.82,858.537 6703.82,857.918L6703.82,853.43C6703.82,852.81 6703.32,852.308 6702.7,852.308C6702.08,852.308 6701.58,852.81 6701.58,853.43ZM6701.58,844.453L6701.58,848.941C6701.58,849.561 6702.08,850.063 6702.7,850.063C6703.32,850.063 6703.82,849.561 6703.82,848.941L6703.82,844.453C6703.82,843.834 6703.32,843.331 6702.7,843.331C6702.08,843.331 6701.58,843.834 6701.58,844.453Z" fill="#df0351" fill-rule="nonzero" transform="matrix(1 0 0 1 -3994.947 0)"/>
  <path d="M6693.48,832.887C6694.13,832.895 6694.65,833.424 6694.65,834.075L6694.65,868.067C6694.65,868.723 6694.12,869.256 6693.46,869.257C6693.23,869.256 6693.05,869.071 6693.05,868.843C6693.05,869.071 6693.23,869.257 6693.46,869.257L6684.56,869.257C6683.92,869.257 6683.4,868.758 6683.38,868.129L6683.37,868.069L6683.37,834.076C6683.37,833.484 6683.8,832.992 6684.37,832.924L6684.4,832.912L6684.44,832.9L6684.38,832.923L6684.37,832.924L6684.37,832.926L6684.38,832.923L6684.56,832.887L6693.48,832.887ZM6683.44,868.302L6683.44,868.295L6683.78,868.481L6683.78,868.482L6683.78,868.481C6683.76,868.478 6683.55,868.452 6683.44,868.302ZM6685.75,866.879L6685.75,835.265L6692.27,835.265L6692.27,866.879L6685.75,866.879Z" fill="#df0351" transform="matrix(1 0 0 1 -3994.947 0)"/>
  <text x="0px" y="0px" font-family="'Roboto-Medium','Roboto'" font-weight="500" font-size="7px" fill="#232322" transform="translate(2734.95 860.933) scale(4.16667)">%tekstura_title%</text>
  <text x="0px" y="0px" font-family="'Roboto-Light','Roboto'" font-weight="300" font-size="7px" fill="#232322" transform="translate(3394.66 860.933) scale(4.16667)" text-anchor="end">%tekstura_value%</text>
  <rect x="201.981" y="517.291" width="1579.92" height="1264.02" fill="#d9d9d9" transform="matrix(1.49514 0 0 1.12239 -180.866 -218.021)"/>
  <text x="0px" y="0px" font-family="'Roboto-Medium','Roboto'" font-weight="500" font-size="10px" fill="#adafba" transform="translate(237.279 1842.56) scale(4.16667)">%x_value%</text>
  <g>
    <text x="0px" y="0px" font-family="'Roboto-Medium','Roboto'" font-weight="500" font-size="10px" fill="#adafba" transform="matrix(0 -4.16667 4.16667 0 90.512 1136.72)">%y_value%</text>
  </g>
  <g>
    <path d="M0,41.576L0,0.027L16.756,0L16.756,5.029L5.221,5.056L5.221,17.822L14.869,17.822L14.869,22.852L5.221,22.852L5.221,36.574L16.756,36.574L16.756,41.576L0,41.576Z" fill="#010303" fill-rule="nonzero" transform="matrix(1.60318 0 0 1.60318 249.384 140.296)"/>
    <path d="M0,41.576L0,0.027L16.756,0L16.756,5.029L5.221,5.056L5.221,17.822L14.871,17.822L14.871,22.852L5.221,22.852L5.221,36.574L16.756,36.574L16.756,41.576L0,41.576Z" fill="#010303" fill-rule="nonzero" transform="matrix(1.60318 0 0 1.60318 293.195 140.296)"/>
    <path d="M0,12.957C0,12.264 -0.102,11.617 -0.301,11.016C-0.502,10.414 -0.793,9.887 -1.176,9.43C-1.559,8.975 -2.031,8.619 -2.598,8.364C-3.162,8.109 -3.809,7.981 -4.537,7.981L-8.693,7.981L-8.693,22.251L-4.482,22.251C-3.791,22.251 -3.162,22.186 -2.598,22.059C-2.031,21.932 -1.555,21.668 -1.162,21.268C-0.77,20.865 -0.475,20.306 -0.273,19.586C-0.074,18.865 0.018,17.904 0,16.701L0,12.957ZM-0.547,-4.564C-0.547,-5.257 -0.619,-5.904 -0.766,-6.506C-0.91,-7.107 -1.148,-7.627 -1.477,-8.064C-1.805,-8.502 -2.232,-8.848 -2.762,-9.104C-3.289,-9.358 -3.938,-9.486 -4.701,-9.486L-8.693,-9.486L-8.693,3.225L-5.139,3.225C-3.426,3.225 -2.223,2.793 -1.531,1.927C-0.838,1.061 -0.502,-0.246 -0.52,-1.996L-0.547,-4.564ZM5.221,16.62C5.221,18.552 5.033,20.191 4.66,21.54C4.287,22.889 3.703,23.988 2.912,24.834C2.119,25.682 1.111,26.297 -0.109,26.68C-1.33,27.061 -2.779,27.254 -4.455,27.254L-13.887,27.254L-13.887,-14.297L-4.566,-14.297C-1.504,-14.297 0.801,-13.518 2.35,-11.959C3.898,-10.401 4.674,-8.064 4.674,-4.947L4.674,-2.434C4.674,-0.283 4.359,1.458 3.73,2.787C3.104,4.118 2.041,4.992 0.547,5.412C1.258,5.576 1.9,5.877 2.473,6.314C3.047,6.752 3.539,7.295 3.949,7.94C4.359,8.588 4.674,9.335 4.893,10.182C5.111,11.029 5.221,11.955 5.221,12.957L5.221,16.62Z" fill="#010303" fill-rule="nonzero" transform="matrix(1.60318 0 0 1.60318 359.492 163.216)"/>
    <path d="M0,10.061L0,25.805L-5.193,25.805L-5.193,10.061L-13.559,-15.744L-7.846,-15.744L-2.516,2.762L3.033,-15.744L8.256,-15.744L0,10.061Z" fill="#010303" fill-rule="nonzero" transform="matrix(1.60318 0 0 1.60318 402.606 165.579)"/>
    <path d="M93.965,26.032L41.918,26.032C41.392,26.032 40.871,26.049 40.347,26.078C40.28,26.084 40.209,26.085 40.142,26.089C39.645,26.12 39.155,26.164 38.665,26.221C38.577,26.231 38.486,26.242 38.4,26.252C37.915,26.312 37.432,26.385 36.956,26.469C36.872,26.483 36.791,26.498 36.71,26.513C36.217,26.605 35.73,26.704 35.247,26.82C35.202,26.832 35.159,26.844 35.111,26.856C34.635,26.971 34.162,27.1 33.691,27.241C33.644,27.253 33.601,27.265 33.553,27.28C33.084,27.423 32.616,27.581 32.153,27.75C32.072,27.777 31.992,27.807 31.911,27.836C31.464,28.003 31.018,28.181 30.582,28.369C30.494,28.405 30.41,28.441 30.325,28.479C29.885,28.673 29.449,28.876 29.019,29.091C28.955,29.124 28.888,29.158 28.824,29.192C28.377,29.419 27.939,29.653 27.505,29.904C27.492,29.911 27.481,29.918 27.468,29.925C27.038,30.174 26.611,30.439 26.192,30.711C26.132,30.752 26.068,30.792 26.004,30.831C25.604,31.096 25.212,31.371 24.821,31.657C24.747,31.712 24.673,31.767 24.596,31.823C24.216,32.109 23.841,32.403 23.475,32.707C23.408,32.764 23.337,32.821 23.274,32.876C22.897,33.194 22.527,33.517 22.168,33.852C22.132,33.887 22.094,33.923 22.061,33.957C21.706,34.291 21.358,34.633 21.023,34.987C20.99,35.023 20.952,35.058 20.92,35.094C20.579,35.453 20.251,35.823 19.928,36.201C19.871,36.267 19.814,36.332 19.761,36.399C19.448,36.769 19.145,37.147 18.853,37.536C18.827,37.57 18.796,37.603 18.772,37.639L18.772,28.91C18.772,16.258 28.676,6.096 41.318,5.776L41.925,5.761C42.034,5.761 42.144,5.764 42.252,5.768L42.531,5.776L42.534,5.761L93.971,5.761C99.56,5.761 104.106,10.307 104.106,15.896C104.106,21.486 99.56,26.032 93.965,26.032M67.947,57.812C73.535,57.812 78.083,62.358 78.083,67.949C78.083,73.537 73.535,78.083 67.929,78.083L39.088,78.083L39.031,81.651L39.042,81.653L39.042,106.99C39.042,112.578 34.497,117.123 28.905,117.123C23.32,117.123 18.772,112.578 18.772,106.983L18.772,54.923C18.776,50.863 19.847,46.867 21.876,43.365C22.122,42.94 22.38,42.531 22.648,42.128C22.736,41.996 22.83,41.869 22.921,41.74C23.105,41.472 23.293,41.207 23.492,40.949C23.602,40.801 23.719,40.656 23.838,40.512C24.022,40.282 24.207,40.053 24.402,39.829C24.529,39.682 24.66,39.537 24.79,39.393C24.983,39.181 25.177,38.973 25.378,38.768C25.516,38.629 25.657,38.49 25.795,38.354C26.004,38.155 26.212,37.96 26.427,37.768C26.568,37.639 26.709,37.511 26.854,37.388C27.082,37.192 27.316,37.003 27.555,36.815C27.689,36.707 27.824,36.597 27.965,36.492C28.247,36.277 28.539,36.074 28.831,35.873C28.929,35.806 29.022,35.734 29.12,35.668C29.514,35.407 29.916,35.157 30.325,34.92C30.427,34.862 30.53,34.808 30.635,34.752C30.944,34.578 31.256,34.408 31.576,34.248C31.73,34.17 31.887,34.1 32.045,34.026C32.317,33.897 32.59,33.77 32.865,33.651C33.039,33.577 33.218,33.508 33.391,33.44C33.661,33.331 33.926,33.23 34.198,33.132C34.384,33.067 34.564,33.005 34.748,32.944C35.021,32.855 35.297,32.773 35.572,32.693C35.756,32.64 35.941,32.587 36.125,32.539C36.414,32.463 36.703,32.398 36.989,32.334C37.171,32.294 37.345,32.253 37.527,32.219C37.848,32.155 38.172,32.104 38.497,32.054C38.644,32.033 38.792,32.006 38.944,31.985C38.976,31.98 39.011,31.978 39.042,31.976L39.042,57.829L67.947,57.812ZM93.958,0.004L41.925,0.004C41.839,-0.007 41.748,0.007 41.66,0.009L41.621,0.011C41.513,0.012 41.409,0.014 41.301,0.018L41.177,0.021C33.613,0.214 26.534,3.302 21.238,8.72C15.938,14.148 13.017,21.319 13.017,28.924L13.017,106.99C13.017,115.751 20.143,122.88 28.905,122.88C37.668,122.88 44.797,115.751 44.797,106.983L44.797,83.84L67.947,83.84C76.709,83.84 83.838,76.711 83.838,67.949C83.838,59.186 76.709,52.055 67.936,52.055L44.797,52.071L44.797,31.789L93.971,31.789C102.737,31.789 109.863,24.66 109.863,15.896C109.863,7.135 102.737,0.004 93.958,0.004" fill="#de0451" fill-rule="nonzero" transform="translate(113.704 66.953) scale(1.40401)"/>
  </g>
  <g>
    <path d="M7.983,18.975L5.509,21.442L5.509,2.558L7.976,5.025L9.033,3.968L5.284,0.218C4.991,-0.073 4.519,-0.073 4.226,0.218L0.476,3.968L1.534,5.025L4.009,2.558L4.009,21.442L1.541,18.975L0.484,20.032L4.234,23.782C4.526,24.073 4.999,24.073 5.291,23.782L9.041,20.032L7.983,18.975Z" fill="#adafba" fill-rule="nonzero" transform="translate(63.382 1165.74) scale(2.62467)"/>
  </g>
  <g>
    <path d="M5.025,8.483L2.558,6.008L21.442,6.008L18.975,8.476L20.032,9.533L23.782,5.783C24.073,5.491 24.073,5.019 23.782,4.726L20.032,0.976L18.975,2.034L21.442,4.509L2.558,4.509L5.025,2.041L3.968,0.984L0.218,4.734C-0.073,5.026 -0.073,5.498 0.218,5.791L3.968,9.541L5.025,8.483Z" fill="#adafba" fill-rule="nonzero" transform="translate(151.125 1815.28) scale(2.3622)"/>
  </g>


</svg>