<?xml version="1.0" encoding="UTF-8" standalone="no"?>
<!DOCTYPE svg PUBLIC "-//W3C//DTD SVG 1.1//EN" "http://www.w3.org/Graphics/SVG/1.1/DTD/svg11.dtd">
<svg xmlns="http://www.w3.org/2000/svg" viewBox="0 0 3508 2481" xml:space="preserve" fill-rule="evenodd" clip-rule="evenodd" stroke-linejoin="round" stroke-miterlimit="2">
  <path fill="#f8f8f8" d="M0 0h3507.875v2480.336H0z"/>
  <path fill="#fff" d="M3507.87 0h-921.268v1961.378h921.268zM0 1961.38v518.957h3507.875V1961.38z"/>
  <path fill="#f8f8f8" d="M3412.87 491.15h-731.456v2.363h731.456zM3412.87 634.179h-731.456v2.362h731.456zM3412.87 777.207h-731.456v2.362h731.456z"/>
  <text font-family="'NomadaDidone-LightItalic','Nomada Didone'" font-weight="350" font-style="italic" font-size="12" fill="#232322" transform="translate(2681.417 155.498) scale(4.16667)">%title_1%</text>
  <text font-family="'NomadaDidone-LightItalic','Nomada Didone'" font-weight="350" font-style="italic" font-size="12" fill="#232322" transform="translate(2681.417 200.09) scale(4.16667)">%title_2%</text>
  <text font-family="'NomadaDidone-LightItalic','Nomada Didone'" font-weight="350" font-style="italic" font-size="12" fill="#232322" transform="translate(2681.417 244.685) scale(4.16667)">%title_3%</text>
  <path d="M2698.873 403.81a1.103 1.103 0 0 0-.842-.389h-.002c-.323 0-.63.142-.841.388-.12.14-2.972 3.48-5.895 7.733a1.106 1.106 0 0 0 .285 1.539 1.102 1.102 0 0 0 1.54-.286c1.92-2.795 3.848-5.23 4.913-6.537 3.734 4.562 11.071 14.516 11.071 19.309 0 6.105-4.967 11.072-11.073 11.072-6.105 0-11.073-4.967-11.073-11.072 0-1.962 1.245-5.003 3.694-9.036a1.108 1.108 0 0 0-1.895-1.151c-2.7 4.449-4.013 7.78-4.013 10.187 0 7.328 5.96 13.287 13.287 13.287 7.328 0 13.288-5.96 13.288-13.287 0-7.058-11.937-21.16-12.444-21.756Z" fill="#df0351" fill-rule="nonzero"/>
  <path d="M2705.995 424.567a1.108 1.108 0 0 0-2.215 0 6.652 6.652 0 0 1-6.643 6.643 1.108 1.108 0 0 0 0 2.215c4.885 0 8.858-3.973 8.858-8.858Z" fill="#df0351" fill-rule="nonzero"/>
  <text font-family="'Roboto-Medium','Roboto'" font-weight="500" font-size="7" fill="#232322" transform="translate(2734.95 432.003) scale(4.16667)">%kolorystyka_title%</text>
  <text font-family="'Roboto-Light','Roboto'" font-weight="300" font-size="7" fill="#232322" transform="translate(3394.66 432.003) scale(4.16667)" text-anchor="end">%kolorystyka_value%</text>
  <path d="M2698.018 563.058h-12.825l3.64-3.644-1.563-1.56-5.535 5.535a1.109 1.109 0 0 0 0 1.561l5.535 5.536 1.563-1.56-3.64-3.655h12.825v12.833l-3.64-3.643-1.563 1.562 5.535 5.536a1.11 1.11 0 0 0 1.563 0l5.535-5.536-1.563-1.562-3.65 3.643v-12.833h12.835l-3.64 3.644 1.553 1.56 5.545-5.535a1.11 1.11 0 0 0 0-1.562l-5.545-5.536-1.553 1.562 3.64 3.654h-12.836v-12.833l3.64 3.642 1.563-1.561-5.535-5.536a1.11 1.11 0 0 0-1.563 0l-5.535 5.536 1.564 1.56 3.65-3.641v12.833Z" fill="#df0351" fill-rule="nonzero"/>
  <text font-family="'Roboto-Medium','Roboto'" font-weight="500" font-size="7" fill="#232322" transform="translate(2734.95 575.023) scale(4.16667)">%rozmiar_title%</text>
  <text font-family="'Roboto-Light','Roboto'" font-weight="300" font-size="7" fill="#232322" transform="translate(3394.66 575.023) scale(4.16667)" text-anchor="end">%rozmiar_value%</text>
  <g fill="#df0351" fill-rule="nonzero">
    <path d="M2709.037 690.603c0-.66-.542-1.201-1.2-1.201h-23.675a2.77 2.77 0 0 0-2.75 2.75v23.674c0 .66.542 1.201 1.2 1.201.66 0 1.202-.542 1.202-1.2v-23.675a.35.35 0 0 1 .348-.348h23.674c.66 0 1.201-.542 1.201-1.201Z"/>
    <path d="M2714.094 695.404h-23.923a2.77 2.77 0 0 0-2.75 2.75v23.924a2.77 2.77 0 0 0 2.75 2.757h23.923a2.77 2.77 0 0 0 2.75-2.75V698.16a2.77 2.77 0 0 0-2.75-2.757Zm.349 26.68a.35.35 0 0 1-.349.349h-23.923a.35.35 0 0 1-.348-.349v-23.923a.35.35 0 0 1 .348-.348h23.923a.35.35 0 0 1 .349.348v23.923Z"/>
  </g>
  <text font-family="'Roboto-Medium','Roboto'" font-weight="500" font-size="7" fill="#232322" transform="translate(2734.95 718.053) scale(4.16667)">%standard_title%</text>
  <text font-family="'Roboto-Light','Roboto'" font-weight="300" font-size="7" fill="#232322" transform="translate(3394.66 718.053) scale(4.16667)" text-anchor="end">%standard_value%</text>
  <path d="M2706.648 835.264c-.01.068-.02.14-.02.212v4.488a1.12 1.12 0 1 0 2.24 0v-4.488c0-.073 0-.144-.02-.212h5.21c.45 0 .82.371.82.828v29.957c0 .458-.37.828-.82.83h-5.19v-4.474a1.12 1.12 0 1 0-2.24 0v4.473h-22.42a.829.829 0 0 1-.83-.829v-.018c0-.655-.53-1.188-1.19-1.188-.66 0-1.19.533-1.19 1.188v.02a3.212 3.212 0 0 0 3.21 3.205h29.85a3.203 3.203 0 0 0 3.2-3.205v-29.96a3.203 3.203 0 0 0-3.2-3.205h-29.85a3.211 3.211 0 0 0-3.21 3.205v24.076c0 .655.53 1.187 1.19 1.187.66 0 1.19-.532 1.19-1.187v-24.075c0-.457.37-.828.83-.828h22.44Zm-.02 18.165v4.488a1.12 1.12 0 1 0 2.24 0v-4.488a1.12 1.12 0 1 0-2.24 0Zm0-8.977v4.488a1.12 1.12 0 1 0 2.24 0v-4.488a1.12 1.12 0 1 0-2.24 0Z" fill="#df0351" fill-rule="nonzero"/>
  <path d="M2698.528 832.886c.65.008 1.17.537 1.17 1.188v33.992a1.19 1.19 0 0 1-1.19 1.19h-8.9c-.64 0-1.16-.499-1.18-1.128l-.01-.06v-33.993c0-.592.43-1.084 1-1.152l.03-.012.04-.012-.06.023-.01.001v.002l.01-.003.18-.036h8.92Zm-10.04 35.415v-.007l.34.186v.001c-.02-.004-.23-.03-.34-.18Zm2.31-1.423v-31.614h6.52v31.614h-6.52Z" fill="#df0351"/>
  <text font-family="'Roboto-Medium','Roboto'" font-weight="500" font-size="7" fill="#232322" transform="translate(2734.95 860.933) scale(4.16667)">%tekstura_title%</text>
  <text font-family="'Roboto-Light','Roboto'" font-weight="300" font-size="7" fill="#232322" transform="translate(3394.66 860.933) scale(4.16667)" text-anchor="end">%tekstura_value%</text>
  <path fill="#d9d9d9" d="M121.124 362.581h2362.201v1418.724H121.124z"/>
  <text font-family="'Roboto-Medium','Roboto'" font-weight="500" font-size="10" fill="#adafba" transform="translate(237.279 1842.56) scale(4.16667)">%x_value%</text>
  <g>
    <text font-family="'Roboto-Medium','Roboto'" font-weight="500" font-size="10" fill="#adafba" transform="matrix(0 -4.16667 4.16667 0 90.512 1136.72)">%y_value%</text>
  </g>
  <g>
    <path d="M249.384 206.95v-66.61l26.863-.044v8.062l-18.493.044v20.466h15.468v8.064h-15.468v21.999h18.493v8.019h-26.863ZM293.195 206.95v-66.61l26.863-.044v8.062l-18.493.044v20.466h15.47v8.064h-15.47v21.999h18.493v8.019h-26.863ZM359.492 183.988a9.841 9.841 0 0 0-.483-3.111 7.71 7.71 0 0 0-1.402-2.543 6.323 6.323 0 0 0-2.28-1.709c-.904-.409-1.942-.614-3.109-.614h-6.662v22.877h6.75c1.108 0 2.117-.104 3.02-.307a4.543 4.543 0 0 0 2.303-1.269c.629-.646 1.101-1.542 1.425-2.696.32-1.156.467-2.697.438-4.625v-6.003Zm-.877-28.089c0-1.11-.115-2.148-.351-3.113-.23-.964-.612-1.797-1.14-2.498-.526-.702-1.21-1.257-2.06-1.667-.845-.408-1.885-.613-3.109-.613h-6.4v20.378h5.698c2.747 0 4.675-.692 5.785-2.08 1.11-1.389 1.65-3.484 1.62-6.29l-.043-4.117Zm9.247 33.962c0 3.097-.301 5.725-.9 7.887-.597 2.163-1.533 3.925-2.802 5.281-1.27 1.36-2.887 2.346-4.843 2.96-1.957.61-4.28.92-6.967.92h-15.121v-66.614h14.943c4.909 0 8.604 1.25 11.087 3.749 2.482 2.497 3.726 6.244 3.726 11.241v4.029c0 3.448-.505 6.24-1.513 8.37-1.004 2.134-2.708 3.535-5.103 4.208 1.14.263 2.169.746 3.088 1.446a9.967 9.967 0 0 1 2.366 2.607c.657 1.04 1.162 2.237 1.513 3.595.35 1.357.526 2.842.526 4.448v5.873ZM402.606 181.709v25.24h-8.325v-25.24l-13.413-41.37h9.16l8.544 29.668 8.896-29.668h8.374l-13.236 41.37Z" fill="#010303" fill-rule="nonzero"/>
    <path d="M245.632 103.502h-73.075c-.738 0-1.47.024-2.205.065-.094.008-.194.01-.288.016-.698.043-1.386.105-2.074.185l-.372.043c-.681.085-1.36.187-2.027.305a40.95 40.95 0 0 0-2.4.493c-.063.017-.123.034-.19.05-.67.162-1.333.343-1.994.54a3.68 3.68 0 0 0-.194.056c-.659.2-1.316.422-1.966.66-.114.037-.226.08-.34.12a40.69 40.69 0 0 0-1.866.749 41.862 41.862 0 0 0-2.194 1.014c-.09.046-.184.093-.274.141a38.53 38.53 0 0 0-1.852 1l-.052.03c-.603.349-1.203.721-1.791 1.103a6.066 6.066 0 0 1-.264.168c-.562.372-1.112.758-1.661 1.16l-.316.233c-.533.402-1.06.814-1.574 1.241-.094.08-.194.16-.282.238-.53.446-1.049.9-1.553 1.37-.05.049-.104.1-.15.147-.499.47-.987.95-1.457 1.446-.047.05-.1.1-.145.15-.479.505-.94 1.024-1.393 1.555-.08.093-.16.184-.234.278-.44.52-.865 1.05-1.275 1.596-.037.048-.08.094-.114.145v-12.256c0-17.763 13.905-32.03 31.655-32.48l.852-.021c.153 0 .308.004.46.01l.39.01.005-.02h72.218c7.847 0 14.23 6.382 14.23 14.23 0 7.848-6.383 14.23-14.238 14.23m-36.53 44.62c7.846 0 14.231 6.383 14.231 14.232 0 7.846-6.385 14.229-14.256 14.229h-40.493l-.08 5.01.015.002v35.573c0 7.846-6.38 14.227-14.232 14.227-7.841 0-14.227-6.381-14.227-14.236v-73.093c.006-5.7 1.51-11.311 4.358-16.228.346-.597.708-1.17 1.084-1.737.124-.185.256-.363.383-.544a24.729 24.729 0 0 1 1.288-1.724c.258-.323.518-.645.792-.96.178-.206.362-.41.544-.612.271-.297.544-.59.826-.877.194-.195.392-.39.585-.581.294-.28.586-.553.888-.823.198-.181.396-.36.6-.534.32-.275.648-.54.983-.804.189-.152.378-.306.576-.454.396-.301.806-.586 1.216-.869.138-.094.268-.195.406-.287a33.27 33.27 0 0 1 1.692-1.05c.143-.082.287-.158.435-.237.434-.244.872-.483 1.321-.707.216-.11.437-.208.659-.312.381-.181.765-.36 1.15-.526.245-.104.496-.201.74-.297.378-.153.75-.294 1.132-.432.261-.091.514-.178.773-.264a37.779 37.779 0 0 1 1.933-.569c.406-.106.811-.198 1.213-.287.255-.057.5-.114.755-.162.451-.09.906-.161 1.362-.232.207-.029.414-.067.628-.096.045-.007.094-.01.137-.013v36.298l40.583-.024Zm36.52-81.163h-73.055c-.12-.016-.248.004-.372.007l-.055.003c-.151.001-.297.004-.449.01l-.174.004c-10.62.27-20.559 4.606-27.995 12.213-7.44 7.621-11.542 17.69-11.542 28.367v109.605c0 12.3 10.005 22.31 22.307 22.31 12.303 0 22.312-10.01 22.312-22.32v-32.493h32.503c12.302 0 22.311-10.009 22.311-22.31 0-12.304-10.009-22.316-22.326-22.316l-32.488.023v-28.477h69.041c12.308 0 22.313-10.009 22.313-22.314 0-12.3-10.005-22.312-22.331-22.312" fill="#de0451" fill-rule="nonzero"/>
  </g>
  <g>
    <path d="m84.335 1215.543-6.494 6.475v-49.564l6.475 6.475 2.775-2.774-9.84-9.843a1.97 1.97 0 0 0-2.777 0l-9.843 9.843 2.777 2.774 6.496-6.475v49.564l-6.477-6.475-2.775 2.774 9.843 9.843a1.966 1.966 0 0 0 2.774 0l9.843-9.843-2.777-2.774Z" fill="#adafba" fill-rule="nonzero"/>
  </g>
  <g>
    <path d="m162.995 1835.319-5.827-5.847h44.607l-5.827 5.83 2.497 2.497 8.858-8.858a1.77 1.77 0 0 0 0-2.497l-8.858-8.858-2.497 2.499 5.827 5.846h-44.607l5.827-5.83-2.497-2.497-8.858 8.859a1.77 1.77 0 0 0 0 2.497l8.858 8.858 2.497-2.5Z" fill="#adafba" fill-rule="nonzero"/>
  </g>
</svg>